<svg width="43" height="65" viewBox="0 0 43 65" fill="none" xmlns="http://www.w3.org/2000/svg">
<path d="M32.5 0C35.9135 0 39.2039 0.527132 42.2949 1.50293V15.2764C39.4058 13.6296 36.0624 12.6885 32.499 12.6885C26.5968 12.6885 21.2992 15.2711 17.6699 19.3662H42.2939V28.0771H16.5566V36.7881H42.2939V45.498H17.5488C21.1808 49.6723 26.5314 52.3115 32.499 52.3115C36.0625 52.3115 39.4057 51.3695 42.2949 49.7227V63.4961C39.2038 64.4719 35.9136 65 32.5 65C14.5507 64.9998 0 50.4492 0 32.5C6.39104e-05 14.5508 14.5508 0.000150506 32.5 0Z" fill="#434240"/>
</svg>
